<mxfile host="Electron" modified="2024-03-12T15:56:29.661Z" agent="Mozilla/5.0 (X11; Linux x86_64) AppleWebKit/537.36 (KHTML, like Gecko) draw.io/24.0.4 Chrome/120.0.6099.109 Electron/28.1.0 Safari/537.36" etag="T80TLS6pVkdoTOToB0nG" version="24.0.4" type="device">
  <diagram name="Page-1" id="JhAxtoE__zHOEZw1ytRs">
    <mxGraphModel dx="989" dy="589" grid="1" gridSize="10" guides="1" tooltips="1" connect="1" arrows="1" fold="1" page="1" pageScale="1" pageWidth="850" pageHeight="1100" math="0" shadow="0">
      <root>
        <mxCell id="0" />
        <mxCell id="1" parent="0" />
        <mxCell id="zQONrXnxhPPcHJO36uH5-1" value="&lt;font style=&quot;font-size: 20px;&quot;&gt;&lt;b&gt;Ongoing Drafts&lt;/b&gt;&lt;/font&gt;" style="text;html=1;align=center;verticalAlign=middle;whiteSpace=wrap;rounded=1;fillColor=#afaba7;fontColor=#000000;strokeColor=#BD7000;" vertex="1" parent="1">
          <mxGeometry x="70" y="200" width="330" height="40" as="geometry" />
        </mxCell>
        <mxCell id="zQONrXnxhPPcHJO36uH5-2" value="&lt;ul style=&quot;orphans: 2; text-indent: 0px; widows: 2; text-decoration-thickness: initial; text-decoration-style: initial; text-decoration-color: initial; background-color: rgb(251, 251, 251); font-size: 14px;&quot;&gt;&lt;li aria-level=&quot;1&quot; style=&quot;list-style-type: disc; font-family: Arial, sans-serif; background-color: transparent; font-variant-numeric: normal; font-variant-east-asian: normal; font-variant-alternates: normal; font-variant-position: normal; vertical-align: baseline; white-space: pre;&quot; dir=&quot;ltr&quot;&gt;&lt;p role=&quot;presentation&quot; style=&quot;line-height:1.38;margin-top:12pt;margin-bottom:0pt;&quot; dir=&quot;ltr&quot;&gt;&lt;span style=&quot;background-color: transparent; font-variant-numeric: normal; font-variant-east-asian: normal; font-variant-alternates: normal; font-variant-position: normal; vertical-align: baseline; text-wrap: wrap;&quot;&gt;Load Balancers&lt;/span&gt;&lt;/p&gt;&lt;/li&gt;&lt;li aria-level=&quot;1&quot; style=&quot;list-style-type: disc; font-family: Arial, sans-serif; background-color: transparent; font-variant-numeric: normal; font-variant-east-asian: normal; font-variant-alternates: normal; font-variant-position: normal; vertical-align: baseline; white-space: pre;&quot; dir=&quot;ltr&quot;&gt;&lt;p role=&quot;presentation&quot; style=&quot;line-height:1.38;margin-top:0pt;margin-bottom:0pt;&quot; dir=&quot;ltr&quot;&gt;&lt;span style=&quot;background-color: transparent; font-variant-numeric: normal; font-variant-east-asian: normal; font-variant-alternates: normal; font-variant-position: normal; vertical-align: baseline; text-wrap: wrap;&quot;&gt;Acknowledgement Frequency&lt;/span&gt;&lt;/p&gt;&lt;/li&gt;&lt;li aria-level=&quot;1&quot; style=&quot;list-style-type: disc; font-family: Arial, sans-serif; background-color: transparent; font-variant-numeric: normal; font-variant-east-asian: normal; font-variant-alternates: normal; font-variant-position: normal; vertical-align: baseline; white-space: pre;&quot; dir=&quot;ltr&quot;&gt;&lt;p role=&quot;presentation&quot; style=&quot;line-height:1.38;margin-top:0pt;margin-bottom:0pt;&quot; dir=&quot;ltr&quot;&gt;&lt;span style=&quot;background-color: transparent; font-variant-numeric: normal; font-variant-east-asian: normal; font-variant-alternates: normal; font-variant-position: normal; vertical-align: baseline; text-wrap: wrap;&quot;&gt;qlog&lt;/span&gt;&lt;/p&gt;&lt;/li&gt;&lt;li aria-level=&quot;1&quot; style=&quot;list-style-type: disc; font-family: Arial, sans-serif; background-color: transparent; font-variant-numeric: normal; font-variant-east-asian: normal; font-variant-alternates: normal; font-variant-position: normal; vertical-align: baseline; white-space: pre;&quot; dir=&quot;ltr&quot;&gt;&lt;p role=&quot;presentation&quot; style=&quot;line-height:1.38;margin-top:0pt;margin-bottom:12pt;&quot; dir=&quot;ltr&quot;&gt;&lt;span style=&quot;background-color: transparent; font-variant-numeric: normal; font-variant-east-asian: normal; font-variant-alternates: normal; font-variant-position: normal; vertical-align: baseline; text-wrap: wrap;&quot;&gt;Multipath&lt;/span&gt;&lt;a style=&quot;text-decoration-line: none;&quot; href=&quot;https://quicwg.org/multipath/draft-ietf-quic-multipath.html&quot;&gt;&lt;span style=&quot;color: rgb(0, 0, 0); background-color: transparent; font-variant-numeric: normal; font-variant-east-asian: normal; font-variant-alternates: normal; font-variant-position: normal; vertical-align: baseline; text-wrap: wrap;&quot;&gt;&amp;nbsp;&lt;/span&gt;&lt;/a&gt;&lt;/p&gt;&lt;/li&gt;&lt;li aria-level=&quot;1&quot; style=&quot;list-style-type: disc; font-family: Arial, sans-serif; background-color: transparent; font-variant-numeric: normal; font-variant-east-asian: normal; font-variant-alternates: normal; font-variant-position: normal; vertical-align: baseline; white-space: pre;&quot; dir=&quot;ltr&quot;&gt;&lt;p role=&quot;presentation&quot; style=&quot;line-height:1.38;margin-top:12pt;margin-bottom:0pt;&quot; dir=&quot;ltr&quot;&gt;&lt;span style=&quot;background-color: transparent; font-variant-numeric: normal; font-variant-east-asian: normal; font-variant-alternates: normal; font-variant-position: normal; vertical-align: baseline; text-wrap: wrap;&quot;&gt;Reliable Reset&lt;/span&gt;&lt;/p&gt;&lt;/li&gt;&lt;div style=&quot;text-align: left;&quot;&gt;&lt;br&gt;&lt;/div&gt;&lt;div style=&quot;text-align: left;&quot;&gt;&lt;br&gt;&lt;/div&gt;&lt;div style=&quot;text-align: left;&quot;&gt;&lt;br&gt;&lt;/div&gt;&lt;h2 style=&quot;color: rgb(0, 0, 0); font-family: Helvetica; font-size: 15px; font-style: normal; font-variant-ligatures: normal; font-variant-caps: normal; letter-spacing: normal; text-transform: none; word-spacing: 0px; -webkit-text-stroke-width: 0px; white-space: normal; font-weight: 400;&quot; id=&quot;applicability-and-manageability&quot;&gt;&lt;/h2&gt;&lt;/ul&gt;" style="text;html=1;align=center;verticalAlign=middle;whiteSpace=wrap;rounded=0;" vertex="1" parent="1">
          <mxGeometry x="70" y="230" width="330" height="230" as="geometry" />
        </mxCell>
      </root>
    </mxGraphModel>
  </diagram>
</mxfile>
